<svg xmlns="http://www.w3.org/2000/svg" width="20" height="20" viewBox="0 0 29.838 31.823">
  <g id="github-line-icon" transform="translate(2.514 1.551)">
    <path id="Path" d="M12.75,26.917c-7.083,2.125-7.083-3.542-9.917-4.25m19.834,8.5V25.684a4.776,4.776,0,0,0-1.332-3.7c4.448-.5,9.123-2.182,9.123-9.917a7.7,7.7,0,0,0-2.124-5.311,7.183,7.183,0,0,0-.128-5.342s-1.672-.5-5.539,2.1a18.956,18.956,0,0,0-9.917,0c-3.868-2.592-5.539-2.1-5.539-2.1a7.185,7.185,0,0,0-.128,5.341,7.708,7.708,0,0,0-2.125,5.355c0,7.678,4.675,9.364,9.124,9.916a4.774,4.774,0,0,0-1.332,3.655v5.483" transform="translate(-4.135 -1.895)" fill="none" stroke="#5a5a5a" stroke-linecap="round" stroke-linejoin="round" stroke-width="2"/>
  </g>
</svg>
