<svg xmlns="http://www.w3.org/2000/svg" width="58.719" height="63.073" viewBox="0 0 58.719 63.073">
  <g id="Icon" transform="translate(1.011 0.912)">
    <path id="Path" d="M22.083,53.389C7.5,57.764,7.5,46.1,1.667,44.639M42.5,62.139V50.851a9.821,9.821,0,0,0-2.74-7.613c9.159-1.018,18.785-4.491,18.785-20.416a15.858,15.858,0,0,0-4.375-10.934,14.8,14.8,0,0,0-.263-11S50.461-.13,42.5,5.208a39,39,0,0,0-20.416,0C14.12-.13,10.68.889,10.68.889a14.789,14.789,0,0,0-.263,11A15.844,15.844,0,0,0,6.042,22.911c0,15.809,9.625,19.278,18.781,20.416a9.836,9.836,0,0,0-2.741,7.525V62.139" transform="translate(-1.667 -0.811)" fill="none" stroke="#fc3465" stroke-linecap="round" stroke-linejoin="round" stroke-width="1.667"/>
  </g>
</svg>