<svg xmlns="http://www.w3.org/2000/svg" width="11.739" height="12.346" viewBox="0 0 11.739 12.346">
  <g id="github-repository-icon" transform="translate(1.011 0.843)">
    <path id="Path" d="M5.219,9.958c-2.537.761-2.537-1.268-3.552-1.522m7.1,3.045V9.517a1.709,1.709,0,0,0-.477-1.324c1.594-.177,3.268-.781,3.268-3.552a2.759,2.759,0,0,0-.761-1.9A2.574,2.574,0,0,0,10.755.824s-.6-.177-1.984.751a6.784,6.784,0,0,0-3.552,0C3.834.647,3.235.824,3.235.824a2.573,2.573,0,0,0-.046,1.913,2.756,2.756,0,0,0-.761,1.918C2.428,7.406,4.1,8.01,5.7,8.208a1.711,1.711,0,0,0-.477,1.309V11.48" transform="translate(-1.667 -0.811)" fill="none" stroke="#fff" stroke-linecap="round" stroke-linejoin="round" stroke-width="1.667"/>
  </g>
</svg>
