<svg xmlns="http://www.w3.org/2000/svg" xmlns:xlink="http://www.w3.org/1999/xlink" width="33.903" height="20.75" viewBox="0 0 33.903 20.75">
  <defs>
    <clipPath id="clip-path">
      <path id="패스_8" data-name="패스 8" d="M105.246,162.516h7.531v12.45h-7.531Zm0,0" transform="translate(-105.246 -162.516)"/>
    </clipPath>
    <clipPath id="clip-path-2">
      <path id="패스_10" data-name="패스 10" d="M171,131.059h10.14v20.75H171Zm0,0" transform="translate(-171 -131.059)"/>
    </clipPath>
    <clipPath id="clip-path-3">
      <path id="패스_12" data-name="패스 12" d="M233.926,162.316h7.531v12.45h-7.531Zm0,0" transform="translate(-233.926 -162.316)"/>
    </clipPath>
  </defs>
  <g id="surface1" transform="translate(-105.246 -131.059)">
    <g id="그룹_66" data-name="그룹 66" transform="translate(105.246 137.506)" clip-path="url(#clip-path)">
      <path id="패스_7" data-name="패스 7" d="M111.466,175l-6.216-6.191,6.259-6.233,1.273,1.267-4.987,4.966,4.943,4.923L111.466,175" transform="translate(-105.249 -162.562)" fill="#fc3465"/>
    </g>
    <g id="그룹_67" data-name="그룹 67" transform="translate(118.721 131.059)" clip-path="url(#clip-path-2)">
      <path id="패스_9" data-name="패스 9" d="M180.489,131.251a2.082,2.082,0,0,1,.585-.158.109.109,0,0,1,.077.013,1.125,1.125,0,0,1-.16.21,6.565,6.565,0,0,0-.919,1.371c-.064.122-.12.248-.18.372a6.007,6.007,0,0,0-.732.7c.169-.12.331-.249.5-.371a1.053,1.053,0,0,1,.131-.09c-.123.289-.236.584-.331.883-.08.244-.14.494-.215.74a13.823,13.823,0,0,1-.671,1.742c-.106.238-.228.469-.327.71a8.183,8.183,0,0,1-.386.869,2.438,2.438,0,0,1-.771.8,1.674,1.674,0,0,0,.628-.434,2.165,2.165,0,0,0,.239-.327,4.013,4.013,0,0,1-.125.516c-.118.416-.249.828-.39,1.237-.078.22-.158.441-.254.655.05-.049.1-.1.151-.146-.252.65-.368,1.343-.612,2a6.255,6.255,0,0,1-.339.761,3.026,3.026,0,0,1-.4.571,2.95,2.95,0,0,1-.249.259c-.129.122-.281.216-.42.327a5.372,5.372,0,0,0-.893.64,3.013,3.013,0,0,1,.484-.307,2.794,2.794,0,0,0-.5.548.471.471,0,0,0-.1.182l-.029.031a.228.228,0,0,1,.123-.038.451.451,0,0,1,.318.063.311.311,0,0,1,.133.293c0,.038-.022.078,0,.114a.665.665,0,0,1,.078.454.626.626,0,0,1-.158.29c-.024.023-.034.077-.077.062v.009c-.05.03-.1.058-.155.083,0,.007,0,.023,0,.031l.04,0c-.041,0-.015.042-.018.066a.205.205,0,0,1-.1.178.42.42,0,0,1-.142.051,1.69,1.69,0,0,0,.175.907,1.412,1.412,0,0,0,.494.527,2.316,2.316,0,0,0,.8.3.981.981,0,0,1,.321.119.617.617,0,0,1,.248.26,1.286,1.286,0,0,1,.079.648,2.894,2.894,0,0,1-.229.855,2.622,2.622,0,0,1-.37.616.149.149,0,0,1-.012.26,15.6,15.6,0,0,1-2.237.123,12.423,12.423,0,0,1-1.951-.123.149.149,0,0,1-.026-.255,2.356,2.356,0,0,1-.377-.62,2.848,2.848,0,0,1-.212-.772,1.492,1.492,0,0,1,.025-.52,1.026,1.026,0,0,1,.136-.3.714.714,0,0,1,.35-.247c.092-.032.189-.043.282-.067a2.124,2.124,0,0,0,.761-.332,1.4,1.4,0,0,0,.441-.525,1.688,1.688,0,0,0,.15-.816.656.656,0,0,1-.671-.531.465.465,0,0,0-.026-.119.566.566,0,0,1,.026-.49.614.614,0,0,1,.221-.209c.038-.023.046-.073.079-.1a.462.462,0,0,1,.52-.09,1.131,1.131,0,0,0-.4-.316,1.171,1.171,0,0,1,.522.412,1.3,1.3,0,0,0-.606-.659.778.778,0,0,1,.25.14,1.492,1.492,0,0,1,.339.38c-.024-.082-.04-.164-.058-.247.073.126.144.254.228.372-.07-.15-.141-.3-.2-.456a1.329,1.329,0,0,1-.094-.315,8.547,8.547,0,0,1-.069-1.2,11.649,11.649,0,0,1,.15-1.772c.085.181.151.37.228.554a.831.831,0,0,0,.073.153c-.063-.327-.145-.649-.214-.974a.756.756,0,0,1-.024-.144c.028-.231.07-.46.109-.69q.089-.51.174-1.021c.046-.286.1-.572.127-.859a2.95,2.95,0,0,0,.085.54,2.39,2.39,0,0,0,.49.938c-.053-.1-.1-.208-.147-.315-.01-.015,0-.029.011-.039.061.119.115.242.183.358a5.7,5.7,0,0,1-.3-.657.029.029,0,0,1-.03-.028,2.153,2.153,0,0,1-.091-1.015c.02-.089.109-.126.168-.185a.232.232,0,0,0,.054-.2,1.409,1.409,0,0,1,.094-.632c.15-.415.4-.788.574-1.19.119-.219.264-.424.4-.632.321-.463.648-.922.989-1.372.087-.11.169-.223.266-.324a.639.639,0,0,0-.058.268.823.823,0,0,0,.089.25,1.655,1.655,0,0,1,.223-.737,2.55,2.55,0,0,1,.41-.569,1.121,1.121,0,0,1,.239-.19.616.616,0,0,0-.06.281,1.225,1.225,0,0,1,.334-.54,7.23,7.23,0,0,1,1.188-.956,10.808,10.808,0,0,1,1.522-.862m-3.528,5q-.549,1.049-1.005,2.142c-.384.921-.713,1.865-1.009,2.818l-.046,0a.624.624,0,0,0-.1-.15c-.119-.163-.221-.338-.327-.51a5,5,0,0,0,.395.613.387.387,0,0,1,.025.046h-.05a.141.141,0,0,1,.014.11h.052c-.016.068-.039.134-.058.2-.393,1.328-.724,2.675-1.026,4.027a.389.389,0,0,0,.11,0c.191-.826.388-1.65.6-2.47.182-.7.369-1.4.581-2.093a29.512,29.512,0,0,1,1.05-2.928q.373-.84.782-1.663a.518.518,0,0,0,.065-.156c-.02,0-.05-.012-.057.014m-2.7,9.378a.522.522,0,0,1,.265-.014.318.318,0,0,1,.255.23.181.181,0,0,0,.041.087.3.3,0,0,0-.109-.32.424.424,0,0,0-.27-.059.3.3,0,0,0-.182.077m-1.472.226a.738.738,0,0,1,.317-.074.72.72,0,0,1,.3.076.452.452,0,0,0-.128-.112.4.4,0,0,0-.493.11m1.382-.078a.193.193,0,0,0-.071.144.477.477,0,0,1,.232-.146.491.491,0,0,1,.265.024.454.454,0,0,0-.279-.091.258.258,0,0,0-.147.069m-.1.294a3.082,3.082,0,0,0,.553.094h.007a.987.987,0,0,1,.158.178c.012.017.015.044.035.053a.35.35,0,0,0-.017-.363.557.557,0,0,1-.167.141c-.016-.049.038-.038.057-.066a.274.274,0,0,0,.046-.167.466.466,0,0,0-.394-.114.51.51,0,0,0-.279.245m-1.312-.139a.36.36,0,0,0,0,.172.774.774,0,0,1,.431-.152.45.45,0,0,0,.181-.021.643.643,0,0,0-.611,0m-.228.2a.533.533,0,0,0-.042.427.682.682,0,0,1,.251-.441.45.45,0,0,1-.015-.17.664.664,0,0,0-.193.184m.822-.152a1.07,1.07,0,0,1,.183.094.16.16,0,0,0-.093-.1.258.258,0,0,0-.09,0m1.417.064c.021,0,.034-.031.025-.047s-.031.031-.025.047m-1.988.124a.328.328,0,0,0,.131.129.6.6,0,0,1,.2-.274.84.84,0,0,0-.335.145m.379-.12a.517.517,0,0,0-.221.255l.047.014a.324.324,0,0,1,.218-.158.47.47,0,0,1,.386.143c.019-.057-.037-.084-.074-.112a.924.924,0,0,0-.3-.156c-.021-.01-.041,0-.058.014m.9.051c-.006.027-.012.053-.018.081a1.094,1.094,0,0,1,.124-.064.343.343,0,0,0-.107-.017m.213.046a.26.26,0,0,1,.11.248.277.277,0,0,1-.125.184.391.391,0,0,0,.535-.14.412.412,0,0,0-.112-.174.46.46,0,0,0-.408-.118m-.21.094c-.015.013-.038.024-.041.046-.033.16-.063.321-.1.482.107,0,.215,0,.322,0a.336.336,0,0,1,.265.093.624.624,0,0,0,.274-.213.363.363,0,0,0,.017-.169.455.455,0,0,1-.266.165.374.374,0,0,1-.289-.058.2.2,0,0,1-.179-.015.186.186,0,0,0,.169.01.261.261,0,0,1-.069-.119l-.011,0c0-.021,0-.041,0-.062.025.019.01.053.021.078a.213.213,0,0,0,.07.094.236.236,0,0,0,.117-.257.253.253,0,0,0-.12-.157.452.452,0,0,0-.183.083m-1.526.447a.524.524,0,0,0,.375.284.244.244,0,0,1,.231-.2.429.429,0,0,1-.217-.218.434.434,0,0,1-.022-.237.336.336,0,0,1-.144-.132.557.557,0,0,0-.223.507m.577-.42c-.018.014-.046.025-.047.052a.2.2,0,0,0-.086.172.2.2,0,0,0,.094.168.225.225,0,0,1-.12-.179.417.417,0,0,1,.022-.153l-.044-.008a.418.418,0,0,0,0,.186.4.4,0,0,0,.183.233.362.362,0,0,0,.194.029.2.2,0,0,0,.134-.069c.026-.026.062-.049.066-.089.014-.066.031-.132.043-.2a.33.33,0,0,0-.15-.138.314.314,0,0,0-.292,0m1.774.016a.7.7,0,0,1-.065.163,1.216,1.216,0,0,1,.009.132.58.58,0,0,0,.056-.3m-1.451.442-.007-.007c-.022.018-.046.034-.069.05h.116c0-.026.02-.053.009-.078-.022,0-.034.024-.049.036m-.888.027a.605.605,0,0,0,.624.467c-.039-.026-.089-.024-.13-.047a.215.215,0,0,1-.13-.2A.567.567,0,0,1,172.555,146.755Zm0,0" transform="translate(-171.011 -131.084)" fill="#fc3465"/>
    </g>
    <g id="그룹_68" data-name="그룹 68" transform="translate(131.617 137.465)" clip-path="url(#clip-path-3)">
      <path id="패스_11" data-name="패스 11" d="M235.234,162.383l6.215,6.191-6.259,6.234-1.273-1.267,4.987-4.966-4.943-4.923,1.273-1.267" transform="translate(-233.92 -162.369)" fill="#fc3465"/>
    </g>
  </g>
</svg>
