<?xml version="1.0" encoding="UTF-8"?>
<svg xmlns="http://www.w3.org/2000/svg" xmlns:xlink="http://www.w3.org/1999/xlink" width="58pt" height="36pt" viewBox="0 0 58 36" version="1.1">
<defs>
<clipPath id="clip1">
  <path d="M 0 11.050781 L 12.847656 11.050781 L 12.847656 32.394531 L 0 32.394531 Z M 0 11.050781 "/>
</clipPath>
<clipPath id="clip2">
  <path d="M 22.988281 0 L 40.285156 0 L 40.285156 35.570312 L 22.988281 35.570312 Z M 22.988281 0 "/>
</clipPath>
<clipPath id="clip3">
  <path d="M 44.984375 11 L 57.832031 11 L 57.832031 32.324219 L 44.984375 32.324219 Z M 44.984375 11 "/>
</clipPath>
</defs>
<g id="surface1">
<g clip-path="url(#clip1)" clip-rule="nonzero">
<path style=" stroke:none;fill-rule:nonzero;fill:rgb(98.823529%,20.392157%,39.607843%);fill-opacity:1;" d="M 10.605469 32.375 L 0 21.761719 L 10.679688 11.074219 L 12.851562 13.246094 L 4.34375 21.761719 L 12.773438 30.199219 L 10.605469 32.375 "/>
</g>
<g clip-path="url(#clip2)" clip-rule="nonzero">
<path style=" stroke:none;fill-rule:nonzero;fill:rgb(98.823529%,20.392157%,39.607843%);fill-opacity:1;" d="M 39.15625 0.285156 C 39.472656 0.148438 39.808594 0.0546875 40.152344 0.015625 C 40.199219 0.0078125 40.246094 0.015625 40.285156 0.0390625 C 40.207031 0.167969 40.117188 0.289062 40.011719 0.398438 C 39.394531 1.113281 38.867188 1.902344 38.445312 2.746094 C 38.335938 2.957031 38.238281 3.171875 38.136719 3.386719 C 37.6875 3.75 37.269531 4.152344 36.886719 4.585938 C 37.175781 4.378906 37.453125 4.160156 37.742188 3.949219 C 37.8125 3.894531 37.886719 3.839844 37.964844 3.796875 C 37.753906 4.289062 37.5625 4.796875 37.398438 5.308594 C 37.261719 5.726562 37.160156 6.15625 37.03125 6.578125 C 36.71875 7.597656 36.335938 8.59375 35.886719 9.5625 C 35.707031 9.972656 35.5 10.367188 35.332031 10.78125 C 35.140625 11.289062 34.921875 11.789062 34.671875 12.269531 C 34.34375 12.824219 33.894531 13.292969 33.355469 13.640625 C 33.765625 13.480469 34.132812 13.226562 34.429688 12.898438 C 34.582031 12.726562 34.71875 12.535156 34.835938 12.335938 C 34.785156 12.636719 34.714844 12.933594 34.621094 13.222656 C 34.421875 13.933594 34.199219 14.640625 33.957031 15.34375 C 33.824219 15.71875 33.6875 16.097656 33.523438 16.464844 C 33.609375 16.382812 33.695312 16.292969 33.78125 16.214844 C 33.351562 17.328125 33.152344 18.519531 32.738281 19.644531 C 32.574219 20.089844 32.378906 20.527344 32.160156 20.949219 C 31.96875 21.300781 31.742188 21.628906 31.476562 21.925781 C 31.34375 22.082031 31.203125 22.230469 31.050781 22.371094 C 30.832031 22.582031 30.574219 22.742188 30.335938 22.933594 C 29.792969 23.246094 29.28125 23.613281 28.8125 24.027344 C 29.070312 23.828125 29.347656 23.652344 29.636719 23.503906 C 29.3125 23.777344 29.027344 24.09375 28.785156 24.441406 C 28.707031 24.53125 28.648438 24.640625 28.613281 24.753906 L 28.566406 24.808594 C 28.628906 24.765625 28.699219 24.742188 28.773438 24.742188 C 28.960938 24.710938 29.15625 24.746094 29.316406 24.851562 C 29.480469 24.960938 29.566406 25.15625 29.542969 25.351562 C 29.542969 25.417969 29.507812 25.484375 29.542969 25.546875 C 29.679688 25.785156 29.726562 26.058594 29.675781 26.328125 C 29.632812 26.511719 29.539062 26.683594 29.40625 26.824219 C 29.367188 26.863281 29.351562 26.957031 29.277344 26.929688 L 29.277344 26.945312 C 29.191406 26.996094 29.105469 27.042969 29.011719 27.085938 C 29.011719 27.097656 29.011719 27.125 29.011719 27.140625 L 29.082031 27.140625 C 29.011719 27.140625 29.054688 27.210938 29.050781 27.253906 C 29.050781 27.378906 28.984375 27.496094 28.878906 27.558594 C 28.804688 27.601562 28.722656 27.632812 28.636719 27.644531 C 28.589844 28.183594 28.695312 28.722656 28.933594 29.199219 C 29.132812 29.570312 29.421875 29.882812 29.777344 30.105469 C 30.195312 30.359375 30.660156 30.535156 31.144531 30.617188 C 31.335938 30.652344 31.519531 30.722656 31.691406 30.824219 C 31.871094 30.925781 32.019531 31.082031 32.113281 31.269531 C 32.253906 31.621094 32.300781 32.003906 32.246094 32.378906 C 32.191406 32.886719 32.0625 33.378906 31.855469 33.84375 C 31.695312 34.222656 31.484375 34.578125 31.226562 34.902344 C 31.304688 34.949219 31.351562 35.039062 31.347656 35.128906 C 31.34375 35.222656 31.289062 35.304688 31.207031 35.347656 C 29.941406 35.507812 28.664062 35.578125 27.390625 35.558594 C 26.277344 35.574219 25.164062 35.503906 24.0625 35.347656 C 23.980469 35.308594 23.925781 35.230469 23.914062 35.140625 C 23.90625 35.050781 23.945312 34.964844 24.015625 34.910156 C 23.75 34.589844 23.53125 34.230469 23.375 33.847656 C 23.191406 33.425781 23.070312 32.980469 23.011719 32.523438 C 22.972656 32.226562 22.988281 31.925781 23.054688 31.632812 C 23.105469 31.449219 23.183594 31.277344 23.285156 31.117188 C 23.4375 30.917969 23.648438 30.769531 23.882812 30.695312 C 24.039062 30.640625 24.207031 30.621094 24.363281 30.578125 C 24.832031 30.476562 25.273438 30.285156 25.664062 30.011719 C 25.984375 29.777344 26.242188 29.46875 26.414062 29.109375 C 26.617188 28.671875 26.703125 28.191406 26.671875 27.710938 C 26.117188 27.734375 25.632812 27.347656 25.527344 26.800781 C 25.519531 26.730469 25.507812 26.664062 25.484375 26.597656 C 25.371094 26.324219 25.386719 26.015625 25.527344 25.757812 C 25.621094 25.609375 25.75 25.484375 25.902344 25.398438 C 25.96875 25.359375 25.980469 25.273438 26.039062 25.226562 C 26.273438 24.996094 26.625 24.933594 26.925781 25.074219 C 26.742188 24.84375 26.507812 24.65625 26.242188 24.53125 C 26.601562 24.675781 26.910156 24.921875 27.132812 25.238281 C 26.933594 24.75 26.566406 24.351562 26.101562 24.109375 C 26.253906 24.160156 26.398438 24.242188 26.527344 24.347656 C 26.753906 24.53125 26.949219 24.75 27.105469 25 C 27.0625 24.859375 27.035156 24.71875 27.003906 24.574219 C 27.128906 24.792969 27.25 25.011719 27.394531 25.214844 C 27.273438 24.957031 27.152344 24.699219 27.054688 24.433594 C 26.976562 24.257812 26.925781 24.078125 26.894531 23.890625 C 26.804688 23.210938 26.765625 22.523438 26.777344 21.835938 C 26.785156 20.816406 26.871094 19.800781 27.03125 18.796875 C 27.175781 19.109375 27.289062 19.429688 27.421875 19.746094 C 27.453125 19.839844 27.496094 19.925781 27.542969 20.007812 C 27.4375 19.449219 27.296875 18.898438 27.179688 18.339844 C 27.160156 18.257812 27.144531 18.175781 27.140625 18.09375 C 27.1875 17.695312 27.257812 17.304688 27.324219 16.910156 C 27.425781 16.328125 27.523438 15.742188 27.621094 15.160156 C 27.699219 14.667969 27.792969 14.179688 27.839844 13.6875 C 27.859375 14 27.90625 14.308594 27.984375 14.613281 C 28.140625 15.203125 28.425781 15.753906 28.820312 16.21875 C 28.730469 16.050781 28.648438 15.863281 28.570312 15.679688 C 28.550781 15.65625 28.570312 15.628906 28.585938 15.613281 C 28.691406 15.816406 28.785156 16.027344 28.898438 16.226562 C 28.707031 15.863281 28.535156 15.488281 28.386719 15.101562 C 28.375 15.101562 28.363281 15.097656 28.351562 15.085938 C 28.34375 15.078125 28.335938 15.066406 28.335938 15.054688 C 28.148438 14.492188 28.09375 13.898438 28.179688 13.3125 C 28.214844 13.160156 28.367188 13.097656 28.46875 12.996094 C 28.550781 12.902344 28.585938 12.777344 28.558594 12.652344 C 28.53125 12.285156 28.585938 11.914062 28.71875 11.570312 C 28.976562 10.859375 29.402344 10.21875 29.699219 9.53125 C 29.902344 9.152344 30.148438 8.804688 30.382812 8.445312 C 30.929688 7.652344 31.488281 6.867188 32.070312 6.09375 C 32.21875 5.90625 32.355469 5.710938 32.523438 5.539062 C 32.457031 5.683594 32.421875 5.839844 32.421875 6 C 32.449219 6.148438 32.503906 6.292969 32.574219 6.425781 C 32.601562 5.980469 32.730469 5.546875 32.957031 5.164062 C 33.144531 4.808594 33.378906 4.480469 33.65625 4.1875 C 33.777344 4.0625 33.914062 3.953125 34.0625 3.863281 C 33.992188 4.011719 33.957031 4.175781 33.960938 4.34375 C 34.066406 3.992188 34.261719 3.671875 34.53125 3.417969 C 35.148438 2.800781 35.824219 2.253906 36.558594 1.78125 C 37.382812 1.21875 38.25 0.722656 39.152344 0.300781 M 33.136719 8.875 C 32.511719 10.070312 31.9375 11.296875 31.421875 12.546875 C 30.765625 14.125 30.203125 15.742188 29.699219 17.375 L 29.621094 17.375 C 29.578125 17.28125 29.519531 17.195312 29.449219 17.117188 C 29.246094 16.839844 29.074219 16.539062 28.890625 16.246094 C 29.089844 16.609375 29.316406 16.960938 29.566406 17.296875 C 29.582031 17.320312 29.597656 17.347656 29.609375 17.375 L 29.523438 17.375 C 29.558594 17.429688 29.566406 17.5 29.546875 17.5625 L 29.636719 17.5625 C 29.609375 17.679688 29.570312 17.792969 29.539062 17.90625 C 28.867188 20.183594 28.300781 22.492188 27.789062 24.808594 C 27.847656 24.816406 27.914062 24.816406 27.976562 24.808594 C 28.300781 23.394531 28.636719 21.980469 29 20.574219 C 29.308594 19.375 29.628906 18.175781 29.988281 16.988281 C 30.5 15.285156 31.097656 13.609375 31.78125 11.96875 C 32.203125 11.007812 32.648438 10.058594 33.113281 9.117188 C 33.164062 9.035156 33.203125 8.945312 33.226562 8.847656 C 33.191406 8.847656 33.140625 8.828125 33.128906 8.875 M 28.523438 24.949219 C 28.667969 24.902344 28.824219 24.894531 28.972656 24.925781 C 29.183594 24.960938 29.355469 25.113281 29.410156 25.320312 C 29.417969 25.375 29.441406 25.425781 29.480469 25.46875 C 29.535156 25.265625 29.460938 25.046875 29.292969 24.921875 C 29.15625 24.835938 28.992188 24.800781 28.832031 24.820312 C 28.71875 24.828125 28.609375 24.875 28.523438 24.953125 M 26.011719 25.339844 C 26.179688 25.257812 26.363281 25.214844 26.550781 25.210938 C 26.730469 25.21875 26.90625 25.261719 27.0625 25.34375 C 27.003906 25.265625 26.929688 25.199219 26.84375 25.148438 C 26.554688 25.003906 26.203125 25.082031 26.003906 25.339844 M 28.363281 25.207031 C 28.289062 25.265625 28.242188 25.355469 28.242188 25.453125 C 28.34375 25.332031 28.484375 25.246094 28.636719 25.203125 C 28.789062 25.171875 28.945312 25.1875 29.089844 25.242188 C 28.953125 25.140625 28.785156 25.085938 28.613281 25.085938 C 28.519531 25.097656 28.429688 25.140625 28.363281 25.207031 M 28.191406 25.710938 C 28.5 25.792969 28.816406 25.84375 29.132812 25.871094 L 29.148438 25.871094 C 29.25 25.960938 29.339844 26.0625 29.417969 26.175781 C 29.4375 26.203125 29.441406 26.25 29.476562 26.265625 C 29.582031 26.070312 29.570312 25.828125 29.445312 25.644531 C 29.367188 25.742188 29.273438 25.824219 29.160156 25.886719 C 29.132812 25.800781 29.226562 25.820312 29.257812 25.773438 C 29.316406 25.6875 29.34375 25.585938 29.335938 25.484375 C 29.15625 25.320312 28.90625 25.25 28.664062 25.289062 C 28.460938 25.367188 28.289062 25.515625 28.191406 25.710938 M 25.953125 25.472656 C 25.929688 25.570312 25.929688 25.671875 25.953125 25.765625 C 26.164062 25.609375 26.421875 25.515625 26.6875 25.507812 C 26.792969 25.515625 26.894531 25.503906 26.996094 25.472656 C 26.671875 25.292969 26.277344 25.292969 25.953125 25.472656 M 25.5625 25.8125 C 25.441406 26.035156 25.414062 26.300781 25.492188 26.546875 C 25.535156 26.246094 25.6875 25.976562 25.921875 25.789062 C 25.894531 25.695312 25.886719 25.597656 25.894531 25.5 C 25.765625 25.578125 25.652344 25.6875 25.566406 25.8125 M 26.96875 25.554688 C 27.078125 25.597656 27.183594 25.652344 27.28125 25.714844 C 27.253906 25.636719 27.199219 25.574219 27.121094 25.542969 C 27.070312 25.535156 27.019531 25.535156 26.96875 25.542969 M 29.386719 25.652344 C 29.421875 25.652344 29.445312 25.597656 29.429688 25.570312 C 29.414062 25.542969 29.375 25.625 29.386719 25.652344 M 25.996094 25.863281 C 26.046875 25.957031 26.125 26.035156 26.21875 26.085938 C 26.285156 25.898438 26.402344 25.738281 26.558594 25.617188 C 26.351562 25.65625 26.15625 25.742188 25.988281 25.863281 M 26.632812 25.660156 C 26.464844 25.757812 26.332031 25.914062 26.257812 26.097656 L 26.335938 26.121094 C 26.417969 25.980469 26.550781 25.882812 26.710938 25.851562 C 26.953125 25.824219 27.195312 25.914062 27.367188 26.09375 C 27.398438 25.996094 27.304688 25.949219 27.242188 25.902344 C 27.089844 25.78125 26.914062 25.691406 26.730469 25.636719 C 26.695312 25.617188 26.660156 25.636719 26.628906 25.660156 M 28.164062 25.746094 C 28.15625 25.792969 28.144531 25.835938 28.136719 25.886719 C 28.203125 25.84375 28.273438 25.808594 28.347656 25.777344 C 28.289062 25.757812 28.226562 25.746094 28.164062 25.746094 M 28.527344 25.824219 C 28.664062 25.921875 28.738281 26.085938 28.714844 26.25 C 28.691406 26.382812 28.613281 26.496094 28.5 26.566406 C 28.820312 26.753906 29.226562 26.644531 29.414062 26.328125 C 29.378906 26.210938 29.3125 26.109375 29.222656 26.027344 C 29.039062 25.851562 28.777344 25.773438 28.527344 25.824219 M 28.167969 25.988281 C 28.144531 26.007812 28.105469 26.027344 28.097656 26.066406 C 28.042969 26.339844 27.992188 26.617188 27.929688 26.890625 C 28.109375 26.890625 28.296875 26.890625 28.476562 26.890625 C 28.644531 26.875 28.808594 26.933594 28.929688 27.050781 C 29.117188 26.976562 29.277344 26.851562 29.398438 26.6875 C 29.429688 26.59375 29.441406 26.492188 29.425781 26.398438 C 29.3125 26.542969 29.152344 26.640625 28.972656 26.679688 C 28.800781 26.714844 28.625 26.679688 28.480469 26.578125 C 28.378906 26.621094 28.265625 26.609375 28.175781 26.554688 C 28.261719 26.605469 28.371094 26.613281 28.460938 26.570312 C 28.40625 26.515625 28.367188 26.445312 28.34375 26.367188 L 28.328125 26.367188 C 28.328125 26.332031 28.328125 26.296875 28.328125 26.261719 C 28.367188 26.292969 28.34375 26.351562 28.363281 26.394531 C 28.386719 26.457031 28.425781 26.515625 28.480469 26.554688 C 28.636719 26.46875 28.71875 26.289062 28.679688 26.117188 C 28.652344 26 28.578125 25.90625 28.476562 25.847656 C 28.363281 25.871094 28.257812 25.917969 28.164062 25.988281 M 25.5625 26.753906 C 25.6875 27.007812 25.921875 27.191406 26.199219 27.242188 C 26.234375 27.046875 26.398438 26.90625 26.59375 26.898438 C 26.429688 26.824219 26.296875 26.691406 26.222656 26.523438 C 26.175781 26.394531 26.160156 26.253906 26.1875 26.117188 C 26.085938 26.070312 26 25.992188 25.941406 25.890625 C 25.671875 26.09375 25.523438 26.425781 25.5625 26.761719 M 26.546875 26.042969 C 26.515625 26.066406 26.464844 26.085938 26.464844 26.128906 C 26.371094 26.199219 26.3125 26.308594 26.316406 26.425781 C 26.320312 26.542969 26.378906 26.652344 26.480469 26.714844 C 26.363281 26.652344 26.285156 26.539062 26.273438 26.40625 C 26.269531 26.316406 26.28125 26.230469 26.3125 26.144531 L 26.238281 26.128906 C 26.210938 26.234375 26.210938 26.34375 26.238281 26.449219 C 26.285156 26.617188 26.398438 26.761719 26.546875 26.847656 C 26.652344 26.894531 26.765625 26.914062 26.878906 26.898438 C 26.96875 26.890625 27.050781 26.847656 27.109375 26.78125 C 27.152344 26.734375 27.214844 26.695312 27.222656 26.628906 C 27.246094 26.515625 27.273438 26.402344 27.292969 26.285156 C 27.234375 26.179688 27.144531 26.097656 27.039062 26.046875 C 26.882812 25.964844 26.695312 25.964844 26.539062 26.046875 M 29.566406 26.074219 C 29.542969 26.171875 29.503906 26.265625 29.457031 26.355469 C 29.464844 26.429688 29.46875 26.507812 29.472656 26.582031 C 29.546875 26.421875 29.582031 26.246094 29.566406 26.066406 M 27.089844 26.824219 L 27.078125 26.8125 C 27.042969 26.84375 27 26.871094 26.960938 26.898438 L 27.160156 26.898438 C 27.160156 26.855469 27.195312 26.808594 27.175781 26.765625 C 27.136719 26.765625 27.117188 26.804688 27.089844 26.828125 M 25.578125 26.875 C 25.691406 27.363281 26.140625 27.703125 26.640625 27.671875 C 26.574219 27.628906 26.488281 27.632812 26.417969 27.59375 C 26.28125 27.535156 26.195312 27.398438 26.195312 27.25 C 25.964844 27.199219 25.757812 27.058594 25.621094 26.863281 Z M 25.578125 26.875 "/>
</g>
<g clip-path="url(#clip3)" clip-rule="nonzero">
<path style=" stroke:none;fill-rule:nonzero;fill:rgb(98.823529%,20.392157%,39.607843%);fill-opacity:1;" d="M 47.226562 11.003906 L 57.828125 21.617188 L 47.152344 32.304688 L 44.980469 30.132812 L 53.488281 21.621094 L 45.054688 13.179688 L 47.226562 11.007812 "/>
</g>
</g>
</svg>
