<svg xmlns="http://www.w3.org/2000/svg" width="20" height="20" viewBox="0 0 30.679 30.736">
  <g id="phone-icon" transform="translate(1.001 1)">
    <path id="Path" d="M30.787,23.512v4.325a2.884,2.884,0,0,1-3.143,2.884A28.531,28.531,0,0,1,15.2,26.295,28.111,28.111,0,0,1,6.55,17.644a28.531,28.531,0,0,1-4.426-12.5A2.885,2.885,0,0,1,4.993,2H9.318A2.883,2.883,0,0,1,12.2,4.48a18.5,18.5,0,0,0,1.009,4.052,2.883,2.883,0,0,1-.649,3.042L10.731,13.4a23.069,23.069,0,0,0,8.651,8.651l1.831-1.831a2.883,2.883,0,0,1,3.042-.649,18.5,18.5,0,0,0,4.052,1.009A2.884,2.884,0,0,1,30.787,23.512Z" transform="translate(-2.112 -2)" fill="#fff" stroke="#5a5a5a" stroke-linecap="round" stroke-linejoin="round" stroke-width="2"/>
  </g>
</svg>
